<svg xmlns="http://www.w3.org/2000/svg" xmlns:xlink="http://www.w3.org/1999/xlink" width="500" zoomAndPan="magnify" viewBox="0 0 375 374.999991" height="500" preserveAspectRatio="xMidYMid meet" version="1.0"><defs><clipPath id="dc6610320e"><path d="M 40.695312 34 L 178 34 L 178 206 L 40.695312 206 Z M 40.695312 34 " clip-rule="nonzero"/></clipPath><clipPath id="1a8ef7709d"><path d="M 129 22.070312 L 321 22.070312 L 321 160 L 129 160 Z M 129 22.070312 " clip-rule="nonzero"/></clipPath><clipPath id="b435f81981"><path d="M 163.023438 161.285156 L 333.945312 161.285156 L 333.945312 352.820312 L 163.023438 352.820312 Z M 163.023438 161.285156 " clip-rule="nonzero"/></clipPath></defs><g clip-path="url(#dc6610320e)"><path fill="#8a63d6" d="M 115.328125 39.855469 C 113.902344 38.0625 114.078125 36.34375 115.132812 34.78125 C 101.039062 37.800781 88.5625 42.265625 85.277344 48.5625 C 83.0625 52.8125 82.746094 57.785156 79.582031 60.585938 C 71.238281 67.960938 70.945312 59.273438 60.433594 73.640625 C 39.246094 102.601562 53.347656 101.433594 42.761719 119.390625 C 40.4375 123.328125 40.96875 124.988281 40.757812 126.335938 C 40.546875 127.683594 39.703125 132.96875 41.179688 136.386719 C 42.65625 139.808594 50.726562 145.039062 52.203125 147.839844 C 53.679688 150.636719 54.101562 155.402344 56 158.617188 C 57.898438 161.828125 68.398438 169.132812 70.296875 170.792969 C 76.914062 176.570312 101.402344 174.710938 107.882812 172.785156 C 116.132812 170.335938 129.496094 162.460938 135.945312 171.957031 C 137.632812 174.445312 139.214844 177.65625 144.066406 177.347656 C 148.921875 177.035156 150.503906 176.621094 153.035156 176.828125 C 162.796875 177.625 151.945312 191.019531 156.660156 205.246094 C 158.820312 205.398438 161.09375 205.359375 163.289062 205.390625 C 181.742188 205.648438 178.039062 182.539062 172.921875 173.269531 C 167.703125 163.8125 124.203125 155.234375 112.15625 155.234375 C 53.660156 155.234375 80.71875 145.039062 66.855469 127.496094 C 57.066406 115.105469 80.355469 93.433594 79.699219 85.9375 C 77.558594 61.613281 130.402344 58.851562 115.328125 39.855469 Z M 21.273438 121.164062 C 31.121094 121.164062 39.105469 129.007812 39.105469 138.679688 C 39.105469 148.351562 31.121094 156.191406 21.273438 156.191406 C 11.429688 156.191406 3.445312 148.351562 3.445312 138.679688 C 3.445312 129.007812 11.429688 121.164062 21.273438 121.164062 " fill-opacity="1" fill-rule="evenodd"/></g><g clip-path="url(#1a8ef7709d)"><path fill="#4f7ad5" d="M 191.738281 80.402344 C 207.320312 93.050781 217.066406 55.917969 244.285156 121.589844 C 250.820312 137.363281 277.308594 148.582031 291.546875 155.226562 C 310.160156 163.910156 317.757812 157.566406 320.496094 146.132812 C 317.972656 146.738281 315.535156 147.21875 314.082031 147.164062 C 310.785156 147.035156 310.136719 145.285156 309.265625 144.328125 C 294.746094 128.339844 269.417969 93.328125 261.355469 74.027344 C 259.667969 69.984375 262.199219 70.917969 263.359375 68.847656 C 264.519531 66.773438 263.941406 63.25 261.832031 59.105469 C 258.175781 51.921875 232.582031 55.625 226.34375 55.074219 C 218.769531 54.410156 211.914062 44.394531 204.375 51.992188 C 202.316406 54.066406 204.136719 56.65625 204.082031 58.210938 C 203.960938 61.753906 170.820312 47.457031 170.808594 47.445312 C 156.636719 31.886719 180.09375 41.285156 164.136719 29.699219 C 163.339844 29.121094 150.375 29.539062 135.125 31.460938 C 129.652344 41.15625 121.054688 52.894531 154.964844 64.53125 C 169.710938 69.59375 176.269531 67.84375 191.738281 80.402344 Z M 271.179688 22.175781 C 281.027344 22.175781 289.007812 30.015625 289.007812 39.6875 C 289.007812 49.359375 281.027344 57.199219 271.179688 57.199219 C 261.332031 57.199219 253.351562 49.359375 253.351562 39.6875 C 253.351562 30.015625 261.332031 22.175781 271.179688 22.175781 " fill-opacity="1" fill-rule="evenodd"/></g><g clip-path="url(#b435f81981)"><path fill="#2cbbc3" d="M 176.113281 248.671875 C 175.957031 250.636719 173.132812 254.550781 171.128906 256.621094 C 169.125 258.695312 170.074219 260.09375 170.179688 261.855469 C 170.285156 263.617188 168.597656 265.328125 167.699219 267.605469 C 166.804688 269.886719 167.304688 276.960938 168.410156 280.949219 C 169.519531 284.9375 178.039062 294.964844 179.144531 296.621094 C 180.253906 298.28125 180.464844 300.613281 180.464844 303.046875 C 180.464844 305.484375 181.703125 309.550781 182.652344 314.058594 C 183.605469 318.566406 187.164062 322.324219 190.0625 325.84375 C 192.964844 329.367188 193.203125 331.726562 193.996094 333.074219 C 194.785156 334.421875 196.527344 339.652344 196.527344 341.882812 C 196.527344 344.109375 196.867188 345.066406 197.609375 347.140625 C 198.347656 349.214844 203.199219 352.269531 205.46875 352.632812 C 216.050781 354.324219 239.535156 344.253906 247.179688 335.390625 C 248.5 333.863281 254.761719 327.453125 258.507812 321.183594 C 262.253906 314.914062 260.011719 316.183594 260.011719 313.695312 C 260.011719 311.207031 261.59375 311.675781 263.441406 310.792969 C 265.285156 309.914062 269.957031 306.570312 271.21875 303.355469 C 272.484375 300.144531 271.21875 297.039062 270.273438 293.203125 C 269.320312 289.367188 274.386719 284.496094 277.339844 280.972656 C 280.292969 277.449219 287.363281 275.792969 291.898438 273.304688 C 296.4375 270.820312 297.4375 265.691406 297.332031 263.097656 C 297.226562 260.507812 296.277344 257.296875 296.488281 251.699219 C 296.699219 246.101562 294.589844 244.960938 293.21875 240.195312 C 291.847656 235.429688 291.054688 225.945312 291.6875 221.800781 C 292.320312 217.65625 294.855469 214.753906 299.179688 208.535156 C 303.503906 202.320312 315.375 191.800781 321.492188 185.789062 C 325.933594 181.429688 330.902344 175.675781 334.300781 170.113281 C 326.8125 151.140625 294.632812 168.75 292.070312 173.578125 C 285.613281 185.75 279.726562 209.339844 279.726562 223.109375 C 279.726562 230.585938 278.605469 235.558594 278.421875 240.316406 C 277.726562 258.292969 257.164062 263.015625 252.441406 271.332031 C 242.925781 288.085938 245.121094 282.859375 245.121094 304.210938 C 245.121094 311.34375 240.570312 327.058594 231.339844 327.707031 C 202.101562 329.753906 210.714844 307.144531 203.03125 301.792969 C 192.710938 294.609375 188.691406 258.691406 191.417969 247.054688 C 193.4375 238.453125 190.152344 212.195312 178.976562 211.570312 C 169.699219 211.054688 165.632812 213.058594 163.257812 216.816406 C 166.253906 221.625 170.292969 228.265625 170.917969 229.625 C 171.867188 231.699219 172.867188 234.601562 172.394531 236.15625 C 171.921875 237.710938 171.628906 239.910156 172.84375 241.933594 C 174.054688 243.953125 176.273438 246.699219 176.113281 248.671875 Z M 296.078125 287.773438 C 305.925781 287.773438 313.90625 295.617188 313.90625 305.289062 C 313.90625 314.960938 305.925781 322.800781 296.078125 322.800781 C 286.230469 322.800781 278.25 314.960938 278.25 305.289062 C 278.25 295.617188 286.230469 287.773438 296.078125 287.773438 " fill-opacity="1" fill-rule="evenodd"/></g></svg>