<svg xmlns="http://www.w3.org/2000/svg" xmlns:xlink="http://www.w3.org/1999/xlink" width="500" zoomAndPan="magnify" viewBox="0 0 375 374.999991" height="500" preserveAspectRatio="xMidYMid meet" version="1.0"><defs><clipPath id="242751b7bb"><path d="M 32.496094 49 L 272 49 L 272 323 L 32.496094 323 Z M 32.496094 49 " clip-rule="nonzero"/></clipPath><clipPath id="17a1da4542"><path d="M 99 31.324219 L 342.246094 31.324219 L 342.246094 343.324219 L 99 343.324219 Z M 99 31.324219 " clip-rule="nonzero"/></clipPath></defs><g clip-path="url(#242751b7bb)"><path fill="#ffffff" d="M 250.441406 272.796875 C 284.472656 221.96875 276.761719 159.488281 231.980469 111.667969 C 248.082031 139.199219 248.910156 167.175781 241.8125 195.382812 C 240.398438 201.015625 237.789062 201.410156 234.300781 196.410156 C 213.375 166.386719 189.878906 136.234375 146.148438 120.066406 C 191.417969 149.714844 210.660156 197.171875 206.757812 252.226562 C 201.230469 330.441406 131.414062 324.453125 89.28125 278.96875 C 67.230469 255.164062 53.691406 222.953125 53.691406 187.496094 C 53.691406 114.179688 111.546875 54.746094 182.925781 54.746094 C 201.886719 54.746094 219.894531 58.941406 236.121094 66.472656 C 216.410156 55.5625 193.71875 49.332031 169.558594 49.332031 C 93.867188 49.332031 32.515625 110.378906 32.515625 185.664062 C 32.515625 225.503906 49.808594 261.722656 77.667969 286.800781 C 131.433594 335.207031 207.230469 337.335938 250.441406 272.796875 " fill-opacity="1" fill-rule="evenodd"/></g><g clip-path="url(#17a1da4542)"><path fill="#ffffff" d="M 186.007812 343.664062 C 272.425781 343.664062 342.484375 273.742188 342.484375 187.496094 C 342.484375 101.246094 272.425781 31.324219 186.007812 31.324219 C 154.132812 31.324219 124.480469 40.847656 99.75 57.179688 C 120.457031 46.085938 144.117188 39.796875 169.242188 39.796875 C 250.710938 39.796875 316.761719 105.929688 316.761719 187.496094 C 316.761719 269.058594 250.710938 335.191406 169.242188 335.191406 C 144.117188 335.191406 120.464844 328.890625 99.75 317.808594 C 124.480469 334.140625 154.121094 343.664062 186.007812 343.664062 " fill-opacity="1" fill-rule="evenodd"/></g><path fill="#ffffff" d="M 88.753906 190.730469 C 164.542969 213.628906 190.417969 254.203125 175.671875 297.410156 C 215.03125 259.679688 192.546875 165.914062 138.578125 128.992188 C 154.082031 147.703125 162.664062 169.339844 165.5625 193.359375 C 166.378906 200.15625 166.871094 200.136719 160.054688 198.644531 C 137.046875 193.617188 113 191.847656 88.753906 190.730469 " fill-opacity="1" fill-rule="evenodd"/><path fill="#ffffff" d="M 224.96875 141.914062 C 230.246094 141.914062 235.390625 147.144531 236.4375 153.597656 C 237.5 160.046875 234.078125 165.277344 228.800781 165.277344 C 223.523438 165.277344 218.382812 160.046875 217.332031 153.597656 C 216.273438 147.144531 219.691406 141.914062 224.96875 141.914062 " fill-opacity="1" fill-rule="evenodd"/><path fill="#ffffff" d="M 137.847656 162.890625 C 143.125 162.890625 148.699219 167.898438 150.289062 174.078125 C 151.886719 180.261719 148.894531 185.269531 143.617188 185.269531 C 138.339844 185.269531 132.761719 180.261719 131.171875 174.078125 C 129.585938 167.90625 132.570312 162.890625 137.847656 162.890625 " fill-opacity="1" fill-rule="evenodd"/></svg>